# xmcd
#
# Track frame offsets: 
#        150
#        14963
#        29602
#        40666
#        57010
#        76542
#        94967
#        113008
#        129329
#        148941
#        162313
#        182837
#        195798
#
# Disc length: 2858 seconds
#
# Revision: 0
# Processed by: cddbd v1.5.2PL0 Copyright (c) Steve Scherf et al.
# Submitted via: ExactAudioCopyFreeDBPlugin 1.0
#
DISCID=a60b280d
DTITLE=吉幾三 - 芸能生活40周年企画 シングルパーフェクトコレクション DISC 1
DYEAR=2013
DGENRE=Vocal
TTITLE0=恋人は君ひとり
TTITLE1=君は無敵の三冠王
TTITLE2=俺はぜったいプレスリー
TTITLE3=俺はぜったいスーパースター
TTITLE4=と・も・子…
TTITLE5=あそばれた男
TTITLE6=縁し唄
TTITLE7=ママ
TTITLE8=ふるさとワルツ
TTITLE9=俺ら東京さ行ぐだ
TTITLE10=羅臼
TTITLE11=ゲゲゲの鬼太郎
TTITLE12=おじさんサンバ
EXTD=
EXTT0=
EXTT1=
EXTT2=
EXTT3=
EXTT4=
EXTT5=
EXTT6=
EXTT7=
EXTT8=
EXTT9=
EXTT10=
EXTT11=
EXTT12=
PLAYORDER=
